<svg id="Layer_1" xmlns="http://www.w3.org/2000/svg" viewBox="0 0 235 297">
  <defs>
    <style>.cls-1{
      fill: #ff9700;

      }
      
      
      .cls-2{stroke-width:0px;}.cls-2{fill:#fff;}
    </style>
    </defs>
  <path class="cls-1" d="M11.48,103.88v.19h14.11v4.94h-14.11v29.87h-5.25v-29.87H-.48v-4.94h6.71v-.44c0-9.11,5.25-14.17,12.97-14.17,2.53,0,5.32.51,7.47,1.46l-.95,4.37-.89-.25c-1.71-.63-3.48-.89-5.06-.89-5.82,0-8.29,3.61-8.29,9.75Z" /> 
  <path class="cls-1" d="M65.58,121.47c0,10.44-7.91,18.1-17.97,18.1s-17.91-7.72-17.91-18.1,8.04-18.1,17.91-18.1,17.97,7.66,17.97,18.1ZM35.02,121.47c0,7.66,5.57,13.1,12.59,13.1s12.66-5.44,12.66-13.1-5.63-13.1-12.66-13.1-12.59,5.38-12.59,13.1Z"/>
  <path class="cls-1" d="M93.3,103.5v5.38c-.57-.06-1.33-.13-2.21-.13-7.28,0-12.34,4.75-12.34,13.67v16.45h-5.25v-34.8h5.25v7.78c2.09-5.19,6.26-8.48,12.4-8.48.82,0,1.65.06,2.15.13Z"/>
  <path class="cls-1" d="M125.7,137.36c-1.9,1.01-5.63,2.21-9.43,2.21-7.47,0-12.47-4.81-12.47-13.99v-16.58h-6.71v-4.94h6.71v-8.35l5.25-1.14v9.49h15.63v4.94h-15.63v16.33c0,5.95,2.66,9.37,8.1,9.37,2.47,0,5-.76,7.59-1.71l.95,4.37Z"/>
  <path class="cls-2" d="M163.22,104.07l-23.48,50.62h-5.63l9.24-20.06-14.11-30.56h5.63l11.26,24.93,11.45-24.93h5.63Z"/>
  <path class="cls-1" d="M28.12,208.69c-1.9,1.01-5.63,2.21-9.43,2.21-7.47,0-12.47-4.81-12.47-13.99v-16.58H-.48v-4.94h6.71v-8.35l5.25-1.14v9.49h15.63v4.94h-15.63v16.33c0,5.95,2.66,9.37,8.1,9.37,2.47,0,5-.76,7.59-1.71l.95,4.37Z"/>
  <path class="cls-1" d="M82.16,175.41l-10.25,34.8h-6.33l-3.42-11.71-4.49-17.65h-.95l-4.49,17.65-3.48,11.71h-6.33l-10.25-34.8h5.25l3.23,10.95,5.06,18.41,5-18.41,3.23-10.95h6.45l3.23,10.95,5,18.35,5.06-18.35,3.23-10.95h5.25Z"/>
  <path class="cls-2" d="M121.46,192.81c0,10.44-7.91,18.1-17.97,18.1s-17.91-7.72-17.91-18.1,8.04-18.1,17.91-18.1,17.97,7.66,17.97,18.1ZM90.89,192.81c0,7.66,5.57,13.1,12.59,13.1s12.66-5.44,12.66-13.1-5.63-13.1-12.66-13.1-12.59,5.38-12.59,13.1Z"/>
  <path class="cls-1" d="M-.48,270.2h5.38c1.39,4.87,5,6.58,11.45,6.58,5.19,0,8.99-1.83,8.99-5.19s-3.86-4.11-10.25-5.7c-9.62-2.4-13.8-4.11-13.8-9.81,0-6.71,5.89-10.5,14.11-10.5s13.42,3.73,14.81,10h-5.32c-1.33-3.54-4.68-5-9.37-5-5.63,0-8.92,2.15-8.92,5.13,0,2.78,2.78,3.54,9.81,5.32,8.92,2.21,14.3,3.61,14.3,10.12,0,7.15-6.52,10.63-14.36,10.63-9.11,0-15.44-4.24-16.83-11.58Z"/>
  <path class="cls-2" d="M73.24,263.68c0,10.5-6.83,18.1-16.33,18.1-6.01,0-10.69-3.04-13.35-7.72v22.84h-5.25v-50.62h5.25v7.15c2.66-4.75,7.4-7.85,13.42-7.85,9.43,0,16.26,7.53,16.26,18.1ZM67.92,263.68c0-7.59-4.94-13.1-11.96-13.1s-12.47,5.44-12.47,13.1,5.38,13.1,12.47,13.1,11.96-5.44,11.96-13.1Z"/>
  <path class="cls-2" d="M114.75,246.28v34.8h-5.25v-7.02c-2.72,4.68-7.4,7.72-13.42,7.72-9.49,0-16.26-7.59-16.26-18.1s6.83-18.1,16.26-18.1c6.01,0,10.76,3.1,13.42,7.85v-7.15h5.25ZM109.56,263.68c0-7.66-5.38-13.1-12.47-13.1s-11.96,5.51-11.96,13.1,4.94,13.1,11.96,13.1,12.47-5.44,12.47-13.1Z"/>
  <path class="cls-2" d="M122.72,263.68c0-10.38,7.78-18.1,17.97-18.1,8.1,0,15.06,4.87,16.9,12.85h-5.44c-1.64-4.94-6.07-7.97-11.45-7.97-7.34,0-12.66,5.57-12.66,13.23s5.38,13.23,12.66,13.23c5.38,0,9.81-3.1,11.45-7.97h5.44c-1.9,8.1-8.92,12.85-16.9,12.85-10.19,0-17.97-7.72-17.97-18.1Z"/>
  <path class="cls-2" d="M198.72,265.26h-29.8c.51,7.21,5.63,11.58,12.66,11.58,4.81,0,8.8-2.02,10.88-6.07h5.44c-2.91,7.4-9.24,11.01-16.52,11.01-10.31,0-17.85-7.34-17.85-17.97s7.4-18.22,17.78-18.22,17.85,8.23,17.4,19.68ZM169.17,260.33h23.86c-1.14-5.82-5.44-9.81-11.71-9.81s-10.95,4.11-12.15,9.81Z"/>
  <path class="cls-2" d="M204.29,270.2h5.38c1.39,4.87,5,6.58,11.45,6.58,5.19,0,8.99-1.83,8.99-5.19s-3.86-4.11-10.25-5.7c-9.62-2.4-13.8-4.11-13.8-9.81,0-6.71,5.89-10.5,14.11-10.5s13.42,3.73,14.81,10h-5.32c-1.33-3.54-4.68-5-9.37-5-5.63,0-8.92,2.15-8.92,5.13,0,2.78,2.78,3.54,9.81,5.32,8.92,2.21,14.3,3.61,14.3,10.12,0,7.15-6.52,10.63-14.36,10.63-9.11,0-15.44-4.24-16.83-11.58Z"/>
  <rect class="cls-1" x="-.39" y=".38" width="6.9" height="21.55">
    <animate attributeName="height" from="0" to="21.55" dur="1s" repeatCount="1" />
    <animate attributeName="y" from="21.93" to=".38" dur="1s" repeatCount="1" fill="freeze" />
  </rect> 
  <circle class="cls-1" cx="43.72" cy="10.87" r="3.54">
    <animate attributeName="cy" from="0" to="10.87" dur="1s" repeatCount="1" />
  </circle> 
  <rect class="cls-1" x="81.68" y=".1" width="7.09" height="21.55">
    <animate attributeName="height" from="0" to="20.99" dur="1s" repeatCount="1" />
  </rect>
  <circle class="cls-1" cx="128.1" cy="10.87" r="3.54">
    <animate attributeName="cy" from="21.55" to="10.87" dur="1s" repeatCount="1" />
  </circle> 
  
  <circle class="cls-2" cx="207.83" cy="10.87" r="3.54">
    <animate attributeName="cy" from="21.55" to="10.87" dur="1s" repeatCount="1" />
  </circle> 
  <rect class="cls-1" x="165.54" y=".1" width="7.09" height="21.55">
    <animate attributeName="height" from="0" to="21.55" dur="1s" repeatCount="1" />
  </rect>
  
  
</svg>